<?xml version="1.0" encoding="UTF-8" standalone="no"?>
<!-- Created with Inkscape (http://www.inkscape.org/) -->

<svg
   xmlns:dc="http://purl.org/dc/elements/1.1/"
   xmlns:cc="http://creativecommons.org/ns#"
   xmlns:rdf="http://www.w3.org/1999/02/22-rdf-syntax-ns#"
   xmlns:svg="http://www.w3.org/2000/svg"
   xmlns="http://www.w3.org/2000/svg"
   xmlns:sodipodi="http://sodipodi.sourceforge.net/DTD/sodipodi-0.dtd"
   xmlns:inkscape="http://www.inkscape.org/namespaces/inkscape"
   width="141.11111mm"
   height="109.41932mm"
   viewBox="0 0 141.11111 109.41932"
   version="1.1"
   id="svg8"
   inkscape:version="0.92.2 (5c3e80d, 2017-08-06)"
   sodipodi:docname="rocky.svg">
  <defs
     id="defs2" />
  <sodipodi:namedview
     id="base"
     pagecolor="#ffffff"
     bordercolor="#666666"
     borderopacity="1.0"
     inkscape:pageopacity="0.0"
     inkscape:pageshadow="2"
     inkscape:zoom="0.62181538"
     inkscape:cx="269.23134"
     inkscape:cy="119.4644"
     inkscape:document-units="mm"
     inkscape:current-layer="g71"
     showgrid="false"
     inkscape:window-width="1440"
     inkscape:window-height="900"
     inkscape:window-x="0"
     inkscape:window-y="0"
     inkscape:window-maximized="0" />
  <metadata
     id="metadata5">
    <rdf:RDF>
      <cc:Work
         rdf:about="">
        <dc:format>image/svg+xml</dc:format>
        <dc:type
           rdf:resource="http://purl.org/dc/dcmitype/StillImage" />
        <dc:title></dc:title>
      </cc:Work>
    </rdf:RDF>
  </metadata>
  <g
     inkscape:label="Layer 1"
     inkscape:groupmode="layer"
     id="layer1"
     transform="translate(-33.765875,-70.688973)">
    <g
       transform="matrix(0.35277777,0,0,-0.35277777,-153.9623,213.59325)"
       inkscape:label="ink_ext_XXXXXX"
       id="g18">
      <g
         id="g71">
        <path
           inkscape:connector-curvature="0"
           id="path24"
           style="fill:#808080;fill-opacity:1;fill-rule:nonzero;stroke:none;stroke-width:0.1"
           d="m 732.14287,258.998 c -21.514,51.148 -59.961,63.718 -75.597,66.765 15.255,9.837 33.919,16.754 54.471,19.597 6.851,0.949 13.912,1.444 21.126,1.444 5.411,0 10.735,-0.279 15.949,-0.818 22.595,-2.336 43.122,-9.566 59.648,-20.223 -15.636,-3.047 -54.082,-15.617 -75.597,-66.765 z m 171.763,-54.878 c -2.03,11.5 -5.126,22.997 -9.203,34.174 -8.419,22.98 -20.446,43.583 -35.746,61.234 -15.795,18.27 -35.37,33.098 -56.608,42.881 -10.624,4.921 -22.109,8.778 -34.137,11.465 -11.082,2.505 -23.222,3.98 -36.084,4.384 -12.832,-0.404 -24.971,-1.879 -36.052,-4.384 -12.029,-2.687 -23.514,-6.544 -34.138,-11.464 -21.239,-9.784 -40.814,-24.612 -56.608,-42.881 -15.301,-17.653 -27.3276,-38.255 -35.7472,-61.236 -4.0765,-11.176 -7.1722,-22.673 -9.2019,-34.173 -1.2727,-7.164 -2.1121,-14.412 -2.4961,-21.553 1.5156,0.035 3.0176,0.048 4.5102,0.052 0.1839,0.001 0.3722,0.007 0.5558,0.007 0.1313,0 0.2586,-0.004 0.3895,-0.004 0.0718,0 0.1422,-0.002 0.214,-0.002 0.002,0 0.004,0 0.006,0 0.8461,-0.003 1.6855,-0.011 2.5211,-0.024 0.384,-0.005 0.7703,-0.008 1.1515,-0.016 1.1989,-0.025 2.3879,-0.057 3.5594,-0.102 1.1742,-0.046 2.3664,-0.108 3.5695,-0.18 13.5259,91.256 57.7289,123.43 96.1399,114.641 35.161,-8.045 67.681,-40.714 49.348,-120.838 3.95,1.115 8.062,1.724 12.293,1.724 4.232,0 8.343,-0.608 12.293,-1.724 -18.332,80.124 14.187,112.793 49.348,120.838 38.411,8.789 82.613,-23.385 96.14,-114.641 1.203,0.072 2.395,0.134 3.569,0.18 h 10e-4 c 1.169,0.045 2.355,0.077 3.551,0.101 0.393,0.009 0.79,0.012 1.185,0.018 0.821,0.012 1.645,0.02 2.476,0.023 0.02,0 0.039,0 0.059,0 0.057,0 0.113,0.002 0.171,0.002 0.133,0 0.263,0.004 0.397,0.004 0.189,0 0.383,-0.007 0.573,-0.007 1.488,-0.004 2.985,-0.017 4.496,-0.052 -0.385,7.143 -1.224,14.391 -2.496,21.553 z m -76.125,140.908 c 0.212,0.261 0.44,0.536 0.678,0.82 0.081,0.096 0.169,0.198 0.253,0.297 0.174,0.205 0.351,0.412 0.538,0.627 0.104,0.118 0.211,0.24 0.319,0.362 0.182,0.207 0.369,0.416 0.564,0.632 0.117,0.13 0.236,0.26 0.358,0.393 0.201,0.22 0.409,0.444 0.622,0.671 0.125,0.132 0.248,0.263 0.376,0.398 0.237,0.249 0.483,0.502 0.733,0.757 0.115,0.119 0.227,0.235 0.346,0.354 0.343,0.347 0.699,0.699 1.067,1.056 0.032,0.031 0.061,0.061 0.093,0.092 0.408,0.394 0.831,0.794 1.268,1.199 0.096,0.088 0.197,0.177 0.294,0.266 0.34,0.312 0.686,0.625 1.043,0.941 0.145,0.128 0.294,0.256 0.442,0.384 0.324,0.282 0.652,0.565 0.99,0.849 0.166,0.14 0.335,0.28 0.505,0.421 0.337,0.278 0.68,0.557 1.03,0.836 0.173,0.139 0.345,0.276 0.521,0.415 0.376,0.295 0.761,0.59 1.151,0.884 0.159,0.121 0.315,0.24 0.477,0.361 0.488,0.362 0.988,0.724 1.498,1.084 0.069,0.049 0.135,0.098 0.204,0.147 0.6,0.42 1.214,0.838 1.843,1.252 0.07,0.046 0.143,0.091 0.213,0.137 0.543,0.355 1.095,0.706 1.66,1.054 0.18,0.111 0.365,0.22 0.548,0.33 0.466,0.282 0.937,0.562 1.417,0.837 0.22,0.126 0.443,0.251 0.666,0.376 0.461,0.258 0.929,0.514 1.403,0.766 0.234,0.125 0.469,0.249 0.707,0.371 0.491,0.254 0.991,0.504 1.496,0.75 0.225,0.109 0.447,0.22 0.675,0.328 0.583,0.278 1.178,0.547 1.779,0.812 0.156,0.069 0.307,0.14 0.464,0.208 0.778,0.337 1.57,0.663 2.377,0.978 0.029,0.011 0.059,0.021 0.088,0.032 0.757,0.293 1.528,0.575 2.31,0.846 0.233,0.081 0.472,0.156 0.707,0.235 0.588,0.197 1.181,0.39 1.783,0.573 0.291,0.089 0.586,0.173 0.88,0.258 0.564,0.163 1.133,0.321 1.708,0.472 0.316,0.082 0.633,0.163 0.953,0.242 0.579,0.143 1.166,0.277 1.757,0.406 0.152,0.033 0.298,0.072 0.451,0.104 -0.128,4.321 -0.639,8.785 -1.772,13.047 -10.938,-3.428 -21.328,-7.956 -30.871,-13.521 -8.706,-5.075 -16.701,-11.027 -23.764,-17.675 5.152,-2.244 10.198,-4.756 15.132,-7.488 0.006,0.008 0.013,0.016 0.02,0.024 z m -229.325,24.848 c 0.538,-0.141 1.069,-0.288 1.596,-0.44 0.331,-0.096 0.662,-0.191 0.989,-0.29 0.55,-0.168 1.09,-0.345 1.628,-0.524 0.286,-0.095 0.575,-0.186 0.857,-0.284 0.671,-0.233 1.33,-0.477 1.982,-0.726 0.137,-0.052 0.278,-0.101 0.413,-0.153 0.782,-0.305 1.549,-0.622 2.304,-0.948 0.234,-0.101 0.46,-0.207 0.691,-0.31 0.52,-0.231 1.036,-0.464 1.542,-0.703 0.281,-0.134 0.556,-0.27 0.833,-0.406 0.446,-0.219 0.889,-0.439 1.324,-0.663 0.285,-0.148 0.567,-0.296 0.847,-0.445 0.419,-0.224 0.832,-0.45 1.241,-0.678 0.272,-0.152 0.543,-0.303 0.811,-0.457 0.417,-0.24 0.826,-0.483 1.232,-0.728 0.24,-0.144 0.484,-0.288 0.721,-0.434 0.465,-0.287 0.92,-0.578 1.371,-0.871 0.163,-0.105 0.331,-0.209 0.493,-0.316 0.602,-0.397 1.191,-0.797 1.766,-1.2 0.162,-0.114 0.316,-0.228 0.476,-0.342 0.414,-0.295 0.824,-0.59 1.224,-0.887 0.211,-0.156 0.415,-0.313 0.623,-0.47 0.336,-0.256 0.67,-0.511 0.996,-0.766 0.214,-0.168 0.424,-0.335 0.634,-0.503 0.309,-0.248 0.614,-0.496 0.914,-0.743 0.202,-0.167 0.402,-0.333 0.599,-0.5 0.299,-0.251 0.59,-0.502 0.879,-0.752 0.181,-0.157 0.363,-0.314 0.54,-0.471 0.315,-0.278 0.62,-0.554 0.921,-0.83 0.135,-0.122 0.274,-0.246 0.405,-0.368 0.425,-0.393 0.838,-0.783 1.235,-1.167 0.082,-0.079 0.158,-0.157 0.239,-0.236 0.316,-0.307 0.625,-0.613 0.923,-0.912 0.137,-0.139 0.266,-0.272 0.399,-0.409 0.232,-0.237 0.461,-0.473 0.682,-0.704 0.137,-0.145 0.27,-0.286 0.403,-0.428 0.204,-0.217 0.403,-0.431 0.596,-0.642 0.129,-0.14 0.254,-0.278 0.378,-0.415 0.188,-0.208 0.37,-0.412 0.547,-0.614 0.111,-0.124 0.221,-0.249 0.327,-0.371 0.187,-0.214 0.363,-0.421 0.537,-0.625 0.084,-0.099 0.172,-0.2 0.252,-0.296 0.239,-0.285 0.467,-0.56 0.68,-0.821 0.006,-0.008 0.013,-0.016 0.019,-0.024 4.934,2.732 9.981,5.244 15.132,7.488 -7.063,6.648 -15.058,12.6 -23.763,17.675 -9.142,5.33 -19.066,9.698 -29.498,13.07 -1.079,-4.232 -1.56,-8.652 -1.667,-12.922 0.233,-0.055 0.459,-0.118 0.69,-0.175 0.348,-0.086 0.693,-0.174 1.037,-0.264" />
        <path
           inkscape:connector-curvature="0"
           id="path26"
           style="fill:#ffffff;fill-opacity:1;fill-rule:nonzero;stroke:none;stroke-width:0.1"
           d="m 576.11947,371.971 c 0.0785,0.005 0.1578,0.01 0.2367,0.015 8e-4,0 0.002,0 0.003,0 1.0051,0.061 2,0.104 2.9817,0.125 7e-4,0 10e-4,0 0.002,0 0.0465,0.001 0.0922,0.001 0.1379,0.001 0.0871,10e-4 0.1742,0.002 0.2617,0.004 0.3738,0.006 0.7496,0.014 1.1199,0.014 0.395,0 0.7793,-0.017 1.17,-0.023 0.2579,-0.004 0.5139,-0.01 0.7709,-0.015 0.128,-0.003 0.257,-0.003 0.384,-0.007 0,0 10e-4,0 0.002,0 0.695,-0.023 1.38,-0.06 2.062,-0.102 0.002,0 0.004,0 0.007,-10e-4 0.311,-0.019 0.627,-0.032 0.936,-0.055 0.001,0 0.002,0 0.002,0 1.976,-0.149 3.897,-0.377 5.763,-0.676 0.207,-0.033 0.409,-0.071 0.612,-0.108 0.095,-0.017 0.19,-0.034 0.286,-0.05 0.002,-0.001 0.004,-0.001 0.006,-0.001 0.625,-0.109 1.248,-0.221 1.86,-0.346 0.189,-0.038 0.374,-0.08 0.56,-0.12 0.156,-0.034 0.312,-0.067 0.468,-0.101 10e-4,0 0.002,0 0.004,0 0.324,-0.072 0.654,-0.135 0.974,-0.21 0.107,4.27 0.588,8.69 1.667,12.922 -0.461,0.149 -0.917,0.308 -1.38,0.453 -9.437,2.963 -19.2773,5.107 -29.3359,6.515 -0.0387,-0.17 -0.0844,-0.335 -0.1223,-0.506 -0.4429,-2.005 -0.8156,-4.043 -1.1281,-6.094 -0.6133,-4.105 -0.982,-8.266 -1.0777,-12.432 -0.005,-0.212 -8e-4,-0.426 -0.004,-0.639 0.002,0.001 0.004,0.001 0.006,0.001 1.1528,0.233 2.2891,0.433 3.4149,0.612 0.1246,0.02 0.2508,0.043 0.3746,0.062 1.0711,0.165 2.1277,0.304 3.1742,0.423 0.001,0 0.002,0 0.003,0 0.1649,0.019 0.3297,0.039 0.4942,0.056 4e-4,0.001 0.001,0.001 0.002,0.001 1.025,0.11 2.0379,0.198 3.0395,0.265 0.0879,0.007 0.1758,0.011 0.2637,0.017 z m 191.5984,-224.583 0.84,-1.505 -10.916,-12.78 -0.647,-0.757 c -6.21,-7.27 -15.291,-11.456 -24.852,-11.456 -9.561,0 -18.642,4.186 -24.852,11.456 l -0.646,0.758 -10.916,12.779 0.839,1.505 c 1.164,2.085 2.496,4.04 3.973,5.854 4.433,5.441 10.177,9.606 16.625,12.157 3.522,1.394 7.252,2.314 11.097,2.686 1.281,0.125 2.576,0.188 3.88,0.188 5.216,0 10.281,-1.016 14.977,-2.873 8.598,-3.403 15.943,-9.673 20.598,-18.012 z m 26.066,149.551 c -35.161,-8.045 -67.68,-40.714 -49.348,-120.838 -3.95,1.116 -8.061,1.724 -12.293,1.724 -4.231,0 -8.343,-0.609 -12.293,-1.724 18.333,80.124 -14.187,112.793 -49.348,120.838 -38.411,8.789 -82.614,-23.385 -96.1399,-114.641 3.2957,-0.198 6.6864,-0.492 10.1269,-0.881 0.452,-0.054 0.904,-0.119 1.356,-0.177 0.235,1.199 0.476,2.385 0.721,3.56 0.08,0.38 0.162,0.752 0.243,1.13 0.167,0.788 0.334,1.576 0.506,2.353 0.101,0.46 0.206,0.911 0.31,1.368 0.155,0.685 0.309,1.371 0.467,2.047 0.112,0.479 0.227,0.95 0.34,1.424 0.154,0.645 0.308,1.292 0.466,1.929 0.118,0.478 0.238,0.948 0.358,1.421 0.157,0.623 0.314,1.245 0.474,1.86 0.124,0.476 0.249,0.945 0.375,1.416 0.16,0.602 0.321,1.203 0.484,1.798 0.128,0.467 0.258,0.93 0.388,1.393 0.164,0.587 0.329,1.171 0.496,1.751 0.132,0.461 0.267,0.918 0.401,1.374 0.169,0.572 0.338,1.142 0.509,1.707 0.136,0.447 0.272,0.891 0.409,1.334 0.175,0.564 0.351,1.126 0.528,1.684 0.138,0.433 0.276,0.864 0.416,1.293 0.18,0.555 0.361,1.107 0.544,1.655 0.14,0.42 0.281,0.839 0.422,1.255 0.187,0.549 0.376,1.094 0.566,1.636 0.14,0.401 0.28,0.803 0.422,1.2 0.195,0.549 0.393,1.093 0.591,1.634 0.14,0.38 0.279,0.761 0.419,1.138 0.205,0.549 0.412,1.092 0.62,1.634 0.137,0.358 0.274,0.718 0.413,1.073 0.216,0.555 0.436,1.103 0.655,1.65 0.133,0.331 0.265,0.663 0.398,0.99 0.233,0.572 0.469,1.136 0.705,1.698 0.123,0.292 0.245,0.587 0.368,0.877 0.259,0.607 0.521,1.204 0.783,1.8 0.104,0.236 0.206,0.476 0.311,0.71 0.301,0.677 0.606,1.344 0.912,2.007 0.068,0.147 0.134,0.297 0.203,0.444 1.142,2.456 2.314,4.813 3.512,7.073 0.033,0.062 0.066,0.122 0.099,0.183 0.362,0.681 0.726,1.354 1.093,2.017 0.08,0.145 0.162,0.286 0.242,0.431 0.321,0.575 0.644,1.147 0.968,1.709 0.103,0.177 0.206,0.351 0.309,0.526 0.305,0.523 0.611,1.043 0.918,1.554 0.116,0.192 0.232,0.379 0.348,0.569 0.298,0.488 0.597,0.974 0.897,1.451 0.123,0.195 0.246,0.386 0.369,0.579 0.297,0.467 0.594,0.93 0.894,1.385 0.126,0.192 0.252,0.381 0.379,0.571 0.298,0.449 0.597,0.894 0.898,1.332 0.129,0.188 0.258,0.373 0.387,0.559 0.3,0.433 0.602,0.861 0.905,1.284 0.13,0.182 0.261,0.363 0.392,0.544 0.305,0.42 0.61,0.834 0.917,1.244 0.13,0.173 0.259,0.346 0.39,0.517 0.31,0.411 0.622,0.815 0.935,1.215 0.127,0.162 0.255,0.324 0.382,0.486 0.32,0.403 0.641,0.801 0.963,1.194 0.121,0.148 0.243,0.297 0.364,0.444 0.331,0.399 0.663,0.792 0.996,1.18 0.115,0.134 0.229,0.269 0.344,0.402 0.346,0.399 0.694,0.791 1.042,1.178 0.102,0.114 0.204,0.23 0.307,0.343 0.369,0.406 0.739,0.805 1.11,1.198 0.083,0.088 0.165,0.178 0.247,0.264 0.406,0.427 0.813,0.845 1.221,1.257 0.049,0.049 0.097,0.1 0.146,0.148 2.789,2.8 5.635,5.25 8.515,7.367 0.043,0.031 0.085,0.061 0.128,0.091 0.429,0.315 0.859,0.623 1.291,0.922 0.081,0.056 0.162,0.11 0.243,0.166 0.394,0.271 0.788,0.537 1.184,0.796 0.102,0.067 0.204,0.131 0.306,0.197 0.374,0.242 0.748,0.48 1.123,0.71 0.118,0.074 0.236,0.144 0.355,0.216 0.36,0.219 0.721,0.434 1.083,0.643 0.126,0.073 0.253,0.144 0.379,0.217 0.353,0.2 0.706,0.397 1.059,0.588 0.135,0.072 0.269,0.144 0.404,0.215 0.346,0.184 0.693,0.364 1.04,0.539 0.139,0.07 0.278,0.139 0.417,0.207 0.343,0.17 0.686,0.335 1.03,0.496 0.142,0.066 0.285,0.133 0.427,0.198 0.34,0.156 0.679,0.306 1.019,0.453 0.146,0.063 0.292,0.126 0.438,0.188 0.339,0.143 0.678,0.281 1.017,0.415 0.145,0.058 0.289,0.117 0.434,0.173 0.341,0.132 0.682,0.258 1.023,0.382 0.143,0.052 0.286,0.105 0.429,0.155 0.346,0.122 0.692,0.238 1.037,0.351 0.137,0.045 0.274,0.092 0.411,0.136 0.355,0.113 0.711,0.219 1.066,0.324 0.127,0.038 0.255,0.077 0.382,0.114 0.374,0.106 0.747,0.205 1.12,0.302 0.108,0.028 0.215,0.059 0.323,0.086 0.411,0.103 0.822,0.2 1.233,0.291 0.07,0.016 0.139,0.034 0.209,0.049 1.449,0.318 2.894,0.563 4.332,0.738 0.131,0.016 0.262,0.028 0.393,0.043 0.341,0.038 0.681,0.076 1.021,0.106 0.18,0.017 0.358,0.028 0.537,0.041 0.291,0.023 0.582,0.046 0.872,0.063 0.203,0.012 0.406,0.02 0.609,0.028 0.265,0.012 0.529,0.025 0.793,0.032 0.218,0.006 0.436,0.007 0.653,0.01 0.183,0.002 0.366,0.008 0.549,0.008 0.035,0 0.071,-0.003 0.106,-0.003 0.932,-0.003 1.859,-0.035 2.78,-0.096 0.06,-0.003 0.119,-0.005 0.178,-0.009 0.965,-0.068 1.924,-0.165 2.876,-0.295 0.014,-0.002 0.028,-0.003 0.042,-0.005 1.954,-0.267 3.879,-0.665 5.769,-1.186 0.02,-0.005 0.041,-0.011 0.061,-0.017 0.92,-0.255 1.832,-0.54 2.735,-0.853 0.041,-0.015 0.082,-0.03 0.124,-0.045 0.882,-0.309 1.755,-0.645 2.619,-1.008 0.053,-0.022 0.105,-0.045 0.157,-0.068 0.854,-0.362 1.697,-0.751 2.53,-1.166 0.055,-0.027 0.11,-0.055 0.165,-0.082 0.831,-0.418 1.652,-0.861 2.462,-1.329 0.05,-0.03 0.101,-0.059 0.151,-0.088 0.815,-0.475 1.619,-0.976 2.411,-1.502 0.039,-0.026 0.079,-0.052 0.119,-0.079 0.806,-0.538 1.599,-1.102 2.378,-1.691 0.022,-0.016 0.043,-0.032 0.064,-0.048 4.024,-3.051 7.684,-6.771 10.863,-11.071 0.02,-0.027 0.039,-0.055 0.059,-0.082 0.611,-0.829 1.204,-1.68 1.779,-2.552 0.03,-0.046 0.06,-0.093 0.09,-0.139 0.563,-0.859 1.107,-1.738 1.633,-2.636 0.033,-0.058 0.067,-0.116 0.101,-0.174 0.519,-0.894 1.019,-1.807 1.499,-2.738 0.033,-0.064 0.066,-0.127 0.099,-0.191 0.479,-0.935 0.938,-1.89 1.377,-2.862 0.027,-0.061 0.055,-0.121 0.083,-0.182 0.441,-0.985 0.861,-1.989 1.26,-3.01 0.02,-0.05 0.039,-0.098 0.058,-0.147 0.407,-1.049 0.792,-2.117 1.152,-3.202 0.007,-0.021 0.014,-0.041 0.021,-0.062 0.737,-2.227 1.375,-4.53 1.905,-6.902 0.003,-0.014 0.005,-0.028 0.008,-0.041 0.259,-1.161 0.491,-2.339 0.698,-3.532 0.011,-0.065 0.021,-0.131 0.032,-0.196 0.195,-1.146 0.366,-2.306 0.512,-3.48 0.012,-0.102 0.023,-0.204 0.035,-0.306 0.138,-1.145 0.251,-2.303 0.34,-3.474 0.01,-0.125 0.018,-0.251 0.027,-0.376 0.082,-1.155 0.14,-2.323 0.174,-3.503 0.004,-0.139 0.007,-0.279 0.011,-0.419 0.027,-1.176 0.03,-2.364 0.008,-3.564 -0.002,-0.141 -0.005,-0.282 -0.008,-0.424 -0.028,-1.21 -0.083,-2.43 -0.162,-3.661 -0.009,-0.133 -0.016,-0.265 -0.026,-0.397 -0.087,-1.255 -0.202,-2.52 -0.344,-3.795 -0.012,-0.111 -0.023,-0.222 -0.035,-0.332 -0.152,-1.317 -0.334,-2.645 -0.545,-3.984 -0.011,-0.069 -0.021,-0.137 -0.032,-0.206 -0.225,-1.406 -0.483,-2.824 -0.777,-4.252 -0.188,-0.974 -0.318,-1.511 -0.318,-1.511 l -0.002,-0.001 c -37.833,-14.765 -44.514,-44.158 -45.156,-60.263 0.562,-0.501 1.125,-1.003 1.67,-1.492 l 1.615,-1.448 c 3.322,-2.979 6.543,-5.851 9.781,-8.601 2.54,-2.158 5.089,-4.248 7.711,-6.218 4.049,-3.042 7.983,-5.58 11.876,-7.684 2.982,-1.611 5.941,-2.975 8.905,-4.077 l 0.147,-0.047 c 0.138,-0.042 11.575,-3.026 23.366,-3.026 11.792,0 23.228,2.984 23.366,3.026 l 0.147,0.047 c 2.964,1.102 5.923,2.466 8.905,4.078 3.893,2.104 7.827,4.641 11.876,7.683 2.623,1.97 5.171,4.06 7.711,6.218 3.238,2.75 6.459,5.622 9.781,8.601 l 1.615,1.448 c 0.546,0.489 1.108,0.991 1.67,1.492 -0.641,16.104 -7.323,45.498 -45.155,60.263 l -0.003,0.001 c 0,0 -0.129,0.537 -0.318,1.511 -0.294,1.428 -0.551,2.845 -0.777,4.251 -0.011,0.07 -0.021,0.14 -0.032,0.211 -0.211,1.336 -0.392,2.662 -0.544,3.977 -0.013,0.114 -0.024,0.228 -0.036,0.343 -0.142,1.269 -0.256,2.529 -0.343,3.777 -0.01,0.142 -0.018,0.283 -0.027,0.425 -0.079,1.219 -0.133,2.429 -0.161,3.627 -0.004,0.155 -0.006,0.31 -0.009,0.464 -0.021,1.182 -0.018,2.352 0.008,3.512 0.004,0.16 0.008,0.32 0.013,0.481 0.033,1.152 0.09,2.294 0.17,3.423 0.01,0.155 0.021,0.31 0.032,0.465 0.087,1.134 0.197,2.255 0.33,3.365 0.016,0.14 0.032,0.281 0.049,0.42 0.14,1.126 0.304,2.238 0.49,3.337 0.019,0.116 0.037,0.232 0.057,0.347 0.196,1.129 0.417,2.243 0.66,3.342 0.017,0.079 0.032,0.158 0.05,0.237 0.258,1.148 0.54,2.279 0.846,3.394 0.017,0.061 0.036,0.122 0.053,0.183 0.299,1.077 0.621,2.139 0.965,3.184 0.036,0.107 0.073,0.212 0.109,0.319 0.332,0.991 0.683,1.968 1.054,2.929 0.053,0.138 0.108,0.274 0.162,0.411 0.364,0.924 0.744,1.835 1.143,2.73 0.068,0.152 0.138,0.304 0.208,0.456 0.396,0.871 0.807,1.728 1.235,2.569 0.081,0.159 0.163,0.317 0.245,0.475 0.43,0.827 0.875,1.639 1.334,2.436 0.091,0.156 0.181,0.312 0.272,0.466 0.465,0.79 0.945,1.565 1.439,2.324 0.095,0.147 0.19,0.294 0.286,0.44 0.503,0.759 1.022,1.501 1.553,2.229 0.096,0.131 0.191,0.265 0.288,0.395 0.548,0.736 1.11,1.454 1.685,2.155 0.088,0.108 0.174,0.218 0.263,0.324 0.6,0.721 1.215,1.42 1.842,2.103 0.076,0.083 0.151,0.167 0.227,0.249 0.66,0.709 1.335,1.397 2.025,2.063 0.081,0.079 0.165,0.155 0.247,0.234 0.663,0.631 1.337,1.245 2.024,1.836 0.102,0.088 0.207,0.172 0.309,0.259 0.668,0.565 1.346,1.112 2.035,1.639 0.122,0.093 0.245,0.182 0.368,0.274 0.679,0.509 1.368,1 2.067,1.47 0.134,0.09 0.269,0.178 0.404,0.267 0.697,0.458 1.403,0.899 2.118,1.319 0.14,0.082 0.282,0.164 0.423,0.245 0.72,0.413 1.448,0.806 2.185,1.179 0.14,0.071 0.28,0.142 0.42,0.211 0.749,0.37 1.507,0.718 2.271,1.047 0.133,0.056 0.264,0.114 0.397,0.169 0.786,0.329 1.581,0.634 2.382,0.917 0.114,0.041 0.227,0.083 0.341,0.122 0.833,0.287 1.674,0.548 2.522,0.786 0.086,0.024 0.171,0.051 0.257,0.074 0.894,0.246 1.797,0.462 2.706,0.651 0.04,0.009 0.08,0.019 0.12,0.027 0.942,0.193 1.892,0.355 2.848,0.486 0.049,0.007 0.098,0.012 0.147,0.019 0.923,0.123 1.851,0.218 2.786,0.284 0.075,0.005 0.15,0.008 0.225,0.012 0.912,0.06 1.828,0.091 2.749,0.094 0.036,0 0.072,0.003 0.108,0.003 0.177,0 0.355,-0.006 0.533,-0.008 0.226,-0.003 0.452,-0.005 0.679,-0.01 0.236,-0.007 0.473,-0.019 0.71,-0.029 0.235,-0.01 0.47,-0.018 0.706,-0.032 0.225,-0.014 0.45,-0.032 0.675,-0.049 0.248,-0.018 0.496,-0.035 0.744,-0.057 0.206,-0.019 0.412,-0.043 0.618,-0.065 0.269,-0.028 0.537,-0.054 0.806,-0.087 0.148,-0.018 0.297,-0.041 0.445,-0.061 1.15,-0.153 2.304,-0.349 3.461,-0.593 0.101,-0.022 0.201,-0.04 0.303,-0.062 0.328,-0.071 0.657,-0.151 0.986,-0.23 0.146,-0.035 0.292,-0.067 0.439,-0.104 0.316,-0.079 0.632,-0.165 0.948,-0.251 0.16,-0.044 0.319,-0.085 0.479,-0.129 0.31,-0.088 0.62,-0.182 0.93,-0.277 0.166,-0.05 0.333,-0.099 0.499,-0.152 0.308,-0.097 0.616,-0.2 0.924,-0.304 0.168,-0.057 0.336,-0.112 0.504,-0.171 0.306,-0.107 0.613,-0.22 0.92,-0.334 0.17,-0.062 0.339,-0.125 0.509,-0.189 0.306,-0.118 0.612,-0.24 0.918,-0.364 0.17,-0.069 0.34,-0.137 0.509,-0.209 0.307,-0.127 0.613,-0.26 0.92,-0.395 0.169,-0.074 0.337,-0.148 0.506,-0.225 0.308,-0.138 0.615,-0.282 0.923,-0.428 0.167,-0.079 0.333,-0.159 0.5,-0.24 0.309,-0.15 0.618,-0.305 0.927,-0.462 0.164,-0.084 0.329,-0.17 0.493,-0.256 0.311,-0.162 0.622,-0.328 0.933,-0.498 0.16,-0.088 0.32,-0.177 0.481,-0.267 0.315,-0.176 0.629,-0.354 0.944,-0.539 0.153,-0.088 0.305,-0.18 0.458,-0.271 0.323,-0.192 0.646,-0.387 0.968,-0.587 0.14,-0.087 0.279,-0.177 0.419,-0.266 0.333,-0.211 0.666,-0.423 0.999,-0.643 0.126,-0.083 0.252,-0.17 0.378,-0.255 0.346,-0.231 0.691,-0.464 1.035,-0.705 0.105,-0.074 0.211,-0.151 0.316,-0.226 0.365,-0.258 0.729,-0.519 1.093,-0.787 0.066,-0.049 0.132,-0.101 0.198,-0.15 2.622,-1.955 5.215,-4.189 7.763,-6.712 0.074,-0.073 0.148,-0.144 0.222,-0.217 0.344,-0.344 0.687,-0.696 1.029,-1.05 0.11,-0.114 0.221,-0.226 0.331,-0.341 0.322,-0.337 0.643,-0.682 0.963,-1.028 0.129,-0.139 0.259,-0.277 0.388,-0.418 0.307,-0.337 0.612,-0.68 0.918,-1.025 0.141,-0.159 0.282,-0.317 0.423,-0.479 0.294,-0.338 0.588,-0.682 0.881,-1.028 0.151,-0.178 0.301,-0.355 0.451,-0.535 0.285,-0.341 0.568,-0.688 0.851,-1.036 0.156,-0.194 0.313,-0.387 0.469,-0.582 0.277,-0.348 0.553,-0.7 0.829,-1.056 0.16,-0.205 0.319,-0.411 0.477,-0.619 0.272,-0.356 0.543,-0.716 0.814,-1.08 0.16,-0.216 0.32,-0.432 0.479,-0.651 0.267,-0.365 0.534,-0.734 0.799,-1.107 0.162,-0.226 0.323,-0.456 0.483,-0.685 0.263,-0.375 0.525,-0.753 0.786,-1.135 0.16,-0.235 0.319,-0.472 0.478,-0.709 0.26,-0.388 0.52,-0.777 0.778,-1.172 0.158,-0.241 0.315,-0.487 0.473,-0.731 0.257,-0.402 0.515,-0.803 0.771,-1.212 0.154,-0.246 0.307,-0.496 0.46,-0.744 0.256,-0.416 0.513,-0.832 0.767,-1.256 0.151,-0.25 0.299,-0.505 0.449,-0.758 0.256,-0.434 0.512,-0.867 0.767,-1.308 0.14,-0.244 0.279,-0.494 0.418,-0.74 0.261,-0.459 0.521,-0.917 0.779,-1.385 0.127,-0.23 0.252,-0.466 0.379,-0.698 0.268,-0.493 0.537,-0.985 0.802,-1.487 0.087,-0.164 0.172,-0.333 0.258,-0.497 0.952,-1.818 1.887,-3.697 2.803,-5.639 0.111,-0.235 0.223,-0.464 0.333,-0.7 0.225,-0.482 0.447,-0.975 0.669,-1.465 0.149,-0.328 0.3,-0.653 0.448,-0.984 0.204,-0.459 0.406,-0.927 0.609,-1.393 0.163,-0.373 0.327,-0.744 0.488,-1.122 0.194,-0.454 0.386,-0.917 0.578,-1.378 0.166,-0.398 0.333,-0.794 0.498,-1.197 0.187,-0.458 0.372,-0.923 0.557,-1.387 0.167,-0.417 0.333,-0.833 0.498,-1.255 0.181,-0.461 0.359,-0.927 0.537,-1.394 0.167,-0.438 0.334,-0.876 0.5,-1.319 0.173,-0.461 0.343,-0.928 0.514,-1.396 0.167,-0.459 0.335,-0.919 0.501,-1.383 0.166,-0.466 0.331,-0.936 0.495,-1.408 0.166,-0.476 0.332,-0.953 0.496,-1.434 0.162,-0.475 0.322,-0.954 0.482,-1.435 0.163,-0.488 0.325,-0.979 0.485,-1.473 0.157,-0.481 0.312,-0.965 0.467,-1.452 0.161,-0.508 0.322,-1.021 0.481,-1.536 0.15,-0.484 0.3,-0.97 0.448,-1.46 0.159,-0.525 0.316,-1.056 0.474,-1.588 0.144,-0.492 0.289,-0.983 0.432,-1.48 0.158,-0.547 0.313,-1.099 0.468,-1.652 0.138,-0.491 0.276,-0.981 0.412,-1.477 0.156,-0.57 0.309,-1.147 0.463,-1.724 0.132,-0.494 0.264,-0.986 0.394,-1.485 0.153,-0.59 0.304,-1.188 0.455,-1.785 0.125,-0.496 0.252,-0.99 0.375,-1.491 0.153,-0.619 0.303,-1.248 0.453,-1.875 0.117,-0.489 0.236,-0.974 0.351,-1.468 0.157,-0.672 0.31,-1.354 0.464,-2.034 0.104,-0.459 0.209,-0.913 0.311,-1.376 0.171,-0.772 0.337,-1.555 0.504,-2.338 0.081,-0.383 0.165,-0.761 0.245,-1.147 0.246,-1.175 0.486,-2.36 0.722,-3.558 0.451,0.058 0.901,0.122 1.352,0.177 3.443,0.389 6.835,0.683 10.13,0.881 -13.527,91.256 -57.729,123.43 -96.14,114.641 z m 105.15,74.234 c -0.095,4.166 -0.464,8.327 -1.078,12.432 -0.312,2.051 -0.684,4.089 -1.127,6.094 -0.038,0.171 -0.084,0.336 -0.123,0.506 -10.058,-1.408 -19.898,-3.552 -29.335,-6.515 -0.003,0 -0.005,-10e-4 -0.007,-0.002 1.133,-4.262 1.644,-8.726 1.772,-13.047 0,-0.003 0,-0.005 0,-0.007 0.166,0.035 0.33,0.073 0.498,0.107 0,0 10e-4,0 0.002,0 0.645,0.132 1.301,0.25 1.961,0.365 0.002,0 0.004,0 0.006,0.001 0.269,0.046 0.533,0.098 0.804,0.141 10e-4,0 10e-4,0.001 0.002,0.001 1.874,0.3 3.803,0.53 5.787,0.679 10e-4,0 0.002,0 0.002,0 0.3,0.022 0.606,0.035 0.908,0.053 0.002,0 0.004,0.001 0.006,0.001 0.692,0.043 1.386,0.08 2.091,0.103 10e-4,0 10e-4,0 0.002,0 0.136,0.004 0.274,0.005 0.41,0.008 0.245,0.005 0.489,0.01 0.734,0.014 0.392,0.006 0.778,0.023 1.175,0.023 0.368,0 0.742,-0.008 1.113,-0.014 0.09,-0.002 0.18,-0.003 0.27,-0.004 0.047,0 0.095,-0.001 0.142,-0.002 10e-4,0 0.002,0 0.002,0 0.975,-0.02 1.963,-0.063 2.961,-0.123 10e-4,0 0.002,-0.001 0.003,-0.001 0.176,-0.01 0.351,-0.021 0.528,-0.033 10e-4,0 0.002,0 0.002,0 0.993,-0.067 1.996,-0.155 3.012,-0.263 0.176,-0.019 0.352,-0.04 0.529,-0.06 1.04,-0.119 2.09,-0.256 3.154,-0.421 0.079,-0.012 0.159,-0.026 0.239,-0.039 0.047,-0.008 0.094,-0.016 0.142,-0.023 0.001,0 0.002,-10e-4 0.004,-10e-4 1.124,-0.179 2.258,-0.378 3.408,-0.611 0.002,0 0.004,0 0.006,-0.001 -0.004,0.213 0,0.427 -0.005,0.639" />
        <path
           inkscape:connector-curvature="0"
           id="path28"
           style="fill:#1a1a1a;fill-opacity:1;fill-rule:nonzero;stroke:none;stroke-width:0.1"
           d="m 709.35187,323.836 c 7.754,-6.018 15.533,-13.553 22.791,-22.995 7.259,9.442 15.037,16.977 22.791,22.995 -7.401,1.298 -15.048,1.968 -22.791,1.968 -7.743,0 -15.39,-0.67 -22.791,-1.968 z m 107.532,-65.454 c 4.821,-5.993 7.71,-13.605 7.71,-21.877 0,-18.703 -14.762,-34.022 -33.248,-34.918 14.055,-13.073 20.849,-28.256 24.083,-40.873 8.05,4.907 16.251,8.88 24.393,11.819 5.828,2.102 11.833,3.785 17.94,5.03 -9.235,46.681 -25.614,71.171 -40.878,80.819 z m -177.192,-21.877 c 0,8.277 2.892,15.893 7.718,21.888 -15.264,-9.642 -31.647,-34.132 -40.886,-80.83 6.107,-1.245 12.111,-2.927 17.937,-5.029 8.148,-2.941 16.35,-6.915 24.396,-11.82 3.234,12.618 10.027,27.798 24.083,40.873 -18.485,0.896 -33.248,16.215 -33.248,34.918 z m -40.596,111.058 c -3.77,1.541 -7.992,2.715 -12.66,3.249 -1.793,0.205 -3.65,0.318 -5.5739,0.318 -1.0132,0 -2.039,-0.031 -3.075,-0.091 0.1227,-0.426 0.2493,-0.85 0.3789,-1.272 2.1458,-6.988 5.278,-13.538 9.313,-19.48 2.38,-3.505 5.147,-6.887 8.256,-10.094 5.937,6.229 12.283,12.05 18.959,17.406 -3.789,3.458 -9.003,7.269 -15.598,9.964 z m 284.327,3.567 c -1.27,0 -2.501,-0.064 -3.714,-0.155 -4.736,-0.358 -9.036,-1.374 -12.894,-2.792 -7.364,-2.706 -13.129,-6.847 -17.223,-10.584 6.673,-5.354 13.019,-11.176 18.959,-17.407 3.109,3.208 5.876,6.589 8.253,10.092 4.038,5.945 7.171,12.495 9.313,19.472 0.131,0.425 0.258,0.853 0.382,1.283 -1.036,0.06 -2.062,0.091 -3.076,0.091" />
        <path
           inkscape:connector-curvature="0"
           id="path30"
           style="fill:#000000;fill-opacity:1;fill-rule:nonzero;stroke:none;stroke-width:0.1"
           d="m 732.14287,300.841 c -7.258,9.442 -15.037,16.977 -22.791,22.995 7.401,1.298 15.048,1.968 22.791,1.968 7.743,0 15.39,-0.67 22.791,-1.968 -7.754,-6.018 -15.532,-13.553 -22.791,-22.995 z m -75.597,24.922 c 0.489,-0.095 1,-0.2 1.532,-0.315 11.703,-2.523 33.6,-9.977 52.778,-31.802 2.615,-2.977 5.18,-6.22 7.661,-9.755 1.654,-2.356 3.272,-4.842 4.842,-7.465 3.141,-5.244 6.095,-11.035 8.784,-17.428 4.034,9.59 8.663,17.824 13.626,24.893 1.654,2.357 3.345,4.584 5.064,6.688 0.859,1.052 1.725,2.074 2.597,3.067 18.306,20.833 39.091,28.571 51.121,31.427 1.146,0.272 2.212,0.499 3.189,0.69 -20.34,13.116 -46.74,21.041 -75.597,21.041 -28.857,0 -55.257,-7.925 -75.597,-21.041 z m 75.597,-157.49 c -5.216,0 -10.28,-1.016 -14.977,-2.874 -8.598,-3.402 -15.943,-9.672 -20.598,-18.011 l -0.839,-1.505 10.916,-12.779 0.646,-0.758 c 6.21,-7.27 15.291,-11.456 24.852,-11.456 9.561,0 18.642,4.186 24.852,11.456 l 0.647,0.757 10.916,12.78 -0.84,1.505 c -4.655,8.339 -12,14.609 -20.598,18.012 -4.696,1.857 -9.761,2.873 -14.977,2.873 z m 169.763,14.346 c -0.19,0 -0.384,0.007 -0.573,0.007 -0.134,0 -0.264,-0.004 -0.397,-0.004 -0.058,0 -0.114,-0.002 -0.171,-0.002 -0.02,0 -0.039,0 -0.059,0 -0.831,-0.003 -1.655,-0.011 -2.476,-0.023 -0.395,-0.006 -0.792,-0.009 -1.185,-0.018 -0.422,-0.009 -0.836,-0.024 -1.256,-0.035 -0.09,-0.003 -0.18,-0.006 -0.27,-0.008 -0.676,-0.019 -1.359,-0.032 -2.025,-0.058 h -10e-4 c -1.174,-0.046 -2.366,-0.108 -3.569,-0.18 -3.295,-0.198 -6.687,-0.492 -10.13,-0.881 -0.451,-0.055 -0.901,-0.119 -1.352,-0.177 -0.236,1.198 -0.476,2.383 -0.722,3.558 -0.08,0.386 -0.164,0.764 -0.245,1.147 -0.167,0.783 -0.333,1.566 -0.504,2.338 -0.102,0.463 -0.207,0.917 -0.311,1.376 -0.154,0.68 -0.307,1.362 -0.464,2.034 -0.116,0.494 -0.234,0.979 -0.351,1.468 -0.15,0.627 -0.3,1.256 -0.453,1.875 -0.123,0.501 -0.25,0.995 -0.375,1.491 -0.151,0.597 -0.302,1.195 -0.455,1.785 -0.13,0.499 -0.262,0.991 -0.394,1.485 -0.154,0.577 -0.307,1.154 -0.463,1.724 -0.136,0.496 -0.274,0.986 -0.412,1.477 -0.155,0.553 -0.311,1.105 -0.468,1.652 -0.143,0.496 -0.288,0.988 -0.432,1.48 -0.157,0.532 -0.315,1.063 -0.474,1.588 -0.148,0.49 -0.298,0.976 -0.448,1.46 -0.159,0.515 -0.32,1.028 -0.481,1.536 -0.155,0.487 -0.31,0.971 -0.467,1.452 -0.16,0.494 -0.322,0.985 -0.485,1.473 -0.16,0.481 -0.32,0.96 -0.482,1.435 -0.164,0.481 -0.33,0.959 -0.496,1.434 -0.164,0.472 -0.329,0.942 -0.495,1.408 -0.166,0.464 -0.334,0.924 -0.501,1.383 -0.171,0.468 -0.341,0.935 -0.514,1.396 -0.165,0.443 -0.333,0.881 -0.5,1.319 -0.178,0.467 -0.356,0.933 -0.537,1.394 -0.164,0.422 -0.331,0.838 -0.498,1.255 -0.185,0.464 -0.37,0.929 -0.557,1.387 -0.165,0.403 -0.332,0.799 -0.498,1.197 -0.192,0.461 -0.384,0.924 -0.578,1.378 -0.161,0.378 -0.325,0.749 -0.488,1.122 -0.203,0.466 -0.405,0.934 -0.609,1.393 -0.148,0.331 -0.299,0.656 -0.448,0.984 -0.222,0.49 -0.444,0.983 -0.669,1.465 -0.11,0.236 -0.222,0.465 -0.333,0.7 -0.916,1.942 -1.851,3.821 -2.803,5.639 -0.086,0.164 -0.171,0.333 -0.258,0.497 -0.265,0.502 -0.534,0.994 -0.802,1.487 -0.127,0.232 -0.252,0.468 -0.379,0.698 -0.258,0.468 -0.518,0.926 -0.779,1.385 -0.139,0.246 -0.278,0.496 -0.418,0.74 -0.255,0.441 -0.511,0.874 -0.767,1.308 -0.15,0.253 -0.298,0.508 -0.449,0.758 -0.254,0.424 -0.511,0.84 -0.767,1.256 -0.153,0.248 -0.306,0.498 -0.46,0.744 -0.256,0.409 -0.514,0.81 -0.771,1.212 -0.158,0.244 -0.315,0.49 -0.473,0.731 -0.258,0.395 -0.518,0.784 -0.778,1.172 -0.159,0.237 -0.318,0.474 -0.478,0.709 -0.261,0.382 -0.523,0.76 -0.786,1.135 -0.16,0.229 -0.321,0.459 -0.483,0.685 -0.265,0.373 -0.532,0.742 -0.799,1.107 -0.159,0.219 -0.319,0.435 -0.479,0.651 -0.27,0.364 -0.542,0.724 -0.814,1.08 -0.158,0.208 -0.317,0.414 -0.477,0.619 -0.276,0.356 -0.552,0.708 -0.829,1.056 -0.156,0.195 -0.313,0.389 -0.469,0.582 -0.283,0.348 -0.566,0.695 -0.851,1.036 -0.15,0.18 -0.3,0.357 -0.451,0.535 -0.293,0.346 -0.587,0.691 -0.881,1.028 -0.141,0.162 -0.282,0.32 -0.423,0.479 -0.306,0.345 -0.611,0.688 -0.918,1.025 -0.129,0.141 -0.259,0.279 -0.388,0.418 -0.32,0.346 -0.641,0.691 -0.963,1.028 -0.11,0.115 -0.221,0.227 -0.331,0.341 -0.342,0.354 -0.685,0.706 -1.029,1.05 -0.074,0.073 -0.148,0.144 -0.222,0.217 -2.548,2.523 -5.141,4.757 -7.763,6.712 -0.066,0.049 -0.132,0.101 -0.198,0.15 -0.364,0.268 -0.728,0.529 -1.093,0.787 -0.105,0.075 -0.211,0.152 -0.316,0.226 -0.344,0.241 -0.689,0.474 -1.035,0.705 -0.126,0.085 -0.252,0.172 -0.378,0.255 -0.333,0.22 -0.666,0.432 -0.999,0.643 -0.14,0.089 -0.279,0.179 -0.419,0.266 -0.322,0.2 -0.645,0.395 -0.968,0.587 -0.153,0.091 -0.305,0.183 -0.458,0.271 -0.315,0.185 -0.629,0.363 -0.944,0.539 -0.161,0.09 -0.321,0.179 -0.481,0.267 -0.311,0.17 -0.622,0.336 -0.933,0.498 -0.164,0.086 -0.329,0.172 -0.493,0.256 -0.309,0.157 -0.618,0.312 -0.927,0.462 -0.167,0.081 -0.333,0.162 -0.5,0.24 -0.308,0.147 -0.615,0.29 -0.923,0.428 -0.169,0.077 -0.337,0.151 -0.506,0.225 -0.307,0.135 -0.613,0.268 -0.92,0.395 -0.169,0.072 -0.339,0.14 -0.509,0.209 -0.306,0.124 -0.612,0.246 -0.918,0.364 -0.17,0.064 -0.339,0.127 -0.509,0.189 -0.307,0.114 -0.614,0.227 -0.92,0.334 -0.168,0.059 -0.336,0.114 -0.504,0.171 -0.308,0.104 -0.616,0.207 -0.924,0.304 -0.166,0.053 -0.333,0.102 -0.499,0.152 -0.31,0.095 -0.62,0.189 -0.93,0.277 -0.159,0.044 -0.319,0.085 -0.479,0.129 -0.316,0.086 -0.632,0.172 -0.948,0.251 -0.147,0.037 -0.293,0.069 -0.439,0.104 -0.329,0.079 -0.658,0.159 -0.986,0.23 -0.102,0.022 -0.202,0.04 -0.303,0.062 -1.157,0.244 -2.311,0.44 -3.461,0.593 -0.148,0.02 -0.297,0.043 -0.445,0.061 -0.269,0.033 -0.537,0.059 -0.806,0.087 -0.206,0.022 -0.412,0.046 -0.618,0.065 -0.248,0.022 -0.496,0.039 -0.744,0.057 -0.225,0.017 -0.45,0.035 -0.675,0.049 -0.236,0.014 -0.471,0.022 -0.706,0.032 -0.237,0.01 -0.474,0.022 -0.71,0.029 -0.227,0.005 -0.453,0.007 -0.679,0.01 -0.178,0.002 -0.356,0.008 -0.533,0.008 -0.036,0 -0.072,-0.003 -0.108,-0.003 -0.921,-0.003 -1.837,-0.034 -2.749,-0.094 -0.075,-0.004 -0.15,-0.007 -0.225,-0.012 -0.935,-0.066 -1.863,-0.161 -2.786,-0.284 -0.049,-0.007 -0.098,-0.012 -0.147,-0.019 -0.956,-0.131 -1.906,-0.293 -2.848,-0.486 -0.04,-0.008 -0.08,-0.018 -0.12,-0.027 -0.909,-0.189 -1.812,-0.406 -2.706,-0.651 -0.086,-0.023 -0.171,-0.05 -0.257,-0.074 -0.848,-0.238 -1.689,-0.499 -2.522,-0.786 -0.114,-0.039 -0.227,-0.081 -0.341,-0.122 -0.801,-0.283 -1.596,-0.588 -2.382,-0.917 -0.132,-0.055 -0.264,-0.113 -0.397,-0.169 -0.764,-0.329 -1.522,-0.677 -2.271,-1.047 -0.14,-0.069 -0.28,-0.14 -0.42,-0.211 -0.737,-0.373 -1.465,-0.766 -2.185,-1.179 -0.141,-0.081 -0.283,-0.163 -0.423,-0.245 -0.715,-0.42 -1.421,-0.861 -2.118,-1.319 -0.135,-0.089 -0.27,-0.177 -0.404,-0.267 -0.699,-0.47 -1.388,-0.961 -2.067,-1.47 -0.123,-0.092 -0.246,-0.181 -0.368,-0.274 -0.689,-0.526 -1.367,-1.074 -2.035,-1.639 -0.102,-0.087 -0.207,-0.171 -0.309,-0.259 -0.687,-0.591 -1.361,-1.205 -2.024,-1.836 -0.082,-0.079 -0.166,-0.155 -0.247,-0.234 -0.69,-0.666 -1.365,-1.354 -2.025,-2.063 -0.076,-0.082 -0.151,-0.166 -0.227,-0.249 -0.627,-0.683 -1.242,-1.382 -1.842,-2.103 -0.089,-0.106 -0.175,-0.216 -0.263,-0.324 -0.575,-0.701 -1.137,-1.419 -1.685,-2.155 -0.097,-0.13 -0.192,-0.264 -0.288,-0.395 -0.531,-0.728 -1.05,-1.47 -1.553,-2.229 -0.096,-0.146 -0.191,-0.293 -0.286,-0.44 -0.494,-0.759 -0.974,-1.534 -1.439,-2.324 -0.091,-0.154 -0.181,-0.31 -0.272,-0.466 -0.459,-0.797 -0.904,-1.609 -1.334,-2.436 -0.082,-0.158 -0.164,-0.316 -0.245,-0.475 -0.428,-0.841 -0.839,-1.698 -1.235,-2.569 -0.07,-0.152 -0.14,-0.304 -0.208,-0.456 -0.399,-0.895 -0.779,-1.806 -1.143,-2.73 -0.054,-0.137 -0.109,-0.273 -0.162,-0.411 -0.371,-0.961 -0.722,-1.938 -1.054,-2.929 -0.036,-0.107 -0.073,-0.212 -0.109,-0.319 -0.344,-1.045 -0.666,-2.107 -0.965,-3.184 -0.017,-0.061 -0.036,-0.122 -0.053,-0.183 -0.306,-1.115 -0.589,-2.246 -0.846,-3.394 -0.018,-0.079 -0.033,-0.158 -0.05,-0.237 -0.243,-1.099 -0.464,-2.213 -0.66,-3.342 -0.02,-0.115 -0.038,-0.231 -0.057,-0.347 -0.186,-1.099 -0.35,-2.211 -0.49,-3.337 -0.017,-0.139 -0.033,-0.28 -0.049,-0.42 -0.133,-1.109 -0.243,-2.231 -0.33,-3.365 -0.011,-0.155 -0.022,-0.31 -0.032,-0.465 -0.08,-1.129 -0.137,-2.271 -0.17,-3.423 -0.005,-0.161 -0.009,-0.321 -0.013,-0.481 -0.026,-1.16 -0.029,-2.33 -0.008,-3.512 0.003,-0.154 0.005,-0.309 0.009,-0.464 0.028,-1.198 0.082,-2.408 0.161,-3.627 0.009,-0.142 0.017,-0.283 0.027,-0.425 0.087,-1.248 0.201,-2.508 0.343,-3.777 0.012,-0.115 0.023,-0.229 0.036,-0.343 0.152,-1.315 0.333,-2.641 0.544,-3.977 0.011,-0.071 0.021,-0.141 0.032,-0.211 0.226,-1.406 0.483,-2.823 0.777,-4.251 0.189,-0.974 0.318,-1.511 0.318,-1.511 l 0.003,-0.001 c 37.832,-14.765 44.514,-44.159 45.155,-60.263 -0.562,-0.501 -1.124,-1.003 -1.67,-1.492 l -1.615,-1.448 c -3.322,-2.979 -6.543,-5.851 -9.781,-8.601 -2.54,-2.158 -5.088,-4.248 -7.711,-6.218 -4.049,-3.042 -7.983,-5.579 -11.876,-7.683 -2.982,-1.612 -5.941,-2.976 -8.905,-4.078 l -0.147,-0.047 c -0.138,-0.042 -11.574,-3.026 -23.366,-3.026 -11.791,0 -23.228,2.984 -23.366,3.026 l -0.147,0.047 c -2.964,1.102 -5.923,2.466 -8.905,4.077 -3.893,2.104 -7.827,4.642 -11.876,7.684 -2.622,1.97 -5.171,4.06 -7.711,6.218 -3.238,2.75 -6.459,5.622 -9.781,8.601 l -1.615,1.448 c -0.545,0.489 -1.108,0.991 -1.67,1.492 0.642,16.105 7.323,45.498 45.156,60.263 l 0.002,0.001 c 0,0 0.13,0.537 0.318,1.511 0.294,1.428 0.552,2.846 0.777,4.252 0.012,0.069 0.021,0.137 0.032,0.206 0.211,1.339 0.393,2.667 0.545,3.984 0.012,0.11 0.023,0.221 0.035,0.332 0.142,1.275 0.257,2.541 0.344,3.795 0.01,0.132 0.017,0.264 0.026,0.397 0.079,1.231 0.134,2.451 0.162,3.661 0.003,0.142 0.006,0.283 0.008,0.424 0.022,1.2 0.019,2.388 -0.008,3.564 -0.004,0.14 -0.007,0.28 -0.011,0.419 -0.034,1.18 -0.092,2.348 -0.174,3.503 -0.009,0.125 -0.017,0.251 -0.027,0.376 -0.089,1.171 -0.202,2.329 -0.34,3.474 -0.012,0.102 -0.023,0.204 -0.035,0.306 -0.146,1.174 -0.317,2.334 -0.512,3.48 -0.011,0.065 -0.021,0.131 -0.032,0.196 -0.207,1.193 -0.439,2.371 -0.698,3.532 -0.003,0.013 -0.005,0.027 -0.008,0.041 -0.53,2.372 -1.168,4.675 -1.905,6.902 -0.007,0.021 -0.014,0.041 -0.021,0.062 -0.36,1.085 -0.745,2.153 -1.152,3.202 -0.019,0.049 -0.038,0.097 -0.058,0.147 -0.399,1.021 -0.819,2.025 -1.26,3.01 -0.028,0.061 -0.056,0.121 -0.083,0.182 -0.439,0.972 -0.898,1.927 -1.377,2.862 -0.033,0.064 -0.066,0.127 -0.099,0.191 -0.48,0.931 -0.98,1.844 -1.499,2.738 -0.034,0.058 -0.068,0.116 -0.101,0.174 -0.526,0.898 -1.07,1.777 -1.633,2.636 -0.03,0.046 -0.06,0.093 -0.09,0.139 -0.575,0.872 -1.168,1.723 -1.779,2.552 -0.02,0.027 -0.039,0.055 -0.059,0.082 -3.179,4.3 -6.839,8.02 -10.863,11.071 -0.021,0.016 -0.042,0.032 -0.064,0.048 -0.779,0.589 -1.572,1.153 -2.378,1.691 -0.04,0.027 -0.08,0.053 -0.119,0.079 -0.792,0.526 -1.596,1.027 -2.411,1.502 -0.05,0.029 -0.101,0.058 -0.151,0.088 -0.81,0.468 -1.631,0.911 -2.462,1.329 -0.055,0.027 -0.11,0.055 -0.165,0.082 -0.833,0.415 -1.677,0.804 -2.53,1.166 -0.052,0.023 -0.104,0.046 -0.157,0.068 -0.864,0.363 -1.737,0.699 -2.619,1.008 -0.042,0.015 -0.083,0.03 -0.124,0.045 -0.903,0.313 -1.815,0.598 -2.735,0.853 -0.02,0.006 -0.041,0.012 -0.061,0.017 -1.89,0.522 -3.816,0.919 -5.769,1.186 -0.014,0.002 -0.028,0.003 -0.042,0.005 -0.952,0.13 -1.911,0.227 -2.876,0.295 -0.059,0.004 -0.118,0.006 -0.178,0.009 -0.921,0.061 -1.848,0.093 -2.78,0.096 -0.035,0 -0.071,0.003 -0.106,0.003 -0.183,0 -0.366,-0.006 -0.549,-0.008 -0.217,-0.003 -0.435,-0.005 -0.653,-0.01 -0.264,-0.007 -0.528,-0.02 -0.793,-0.032 -0.203,-0.008 -0.406,-0.016 -0.609,-0.028 -0.29,-0.017 -0.581,-0.04 -0.872,-0.063 -0.179,-0.013 -0.357,-0.024 -0.537,-0.041 -0.34,-0.03 -0.68,-0.068 -1.021,-0.106 -0.131,-0.015 -0.262,-0.027 -0.393,-0.043 -1.438,-0.175 -2.883,-0.42 -4.332,-0.738 -0.07,-0.015 -0.139,-0.033 -0.209,-0.049 -0.411,-0.091 -0.822,-0.188 -1.233,-0.291 -0.108,-0.027 -0.215,-0.058 -0.323,-0.086 -0.373,-0.097 -0.746,-0.196 -1.12,-0.302 -0.127,-0.037 -0.255,-0.076 -0.382,-0.114 -0.355,-0.105 -0.711,-0.211 -1.066,-0.324 -0.137,-0.044 -0.274,-0.091 -0.411,-0.136 -0.345,-0.113 -0.691,-0.229 -1.037,-0.351 -0.143,-0.05 -0.286,-0.104 -0.429,-0.155 -0.341,-0.124 -0.682,-0.25 -1.023,-0.382 -0.145,-0.056 -0.289,-0.115 -0.434,-0.173 -0.339,-0.134 -0.678,-0.272 -1.017,-0.415 -0.146,-0.062 -0.292,-0.125 -0.438,-0.188 -0.34,-0.147 -0.68,-0.297 -1.019,-0.453 -0.142,-0.065 -0.285,-0.132 -0.427,-0.198 -0.344,-0.161 -0.687,-0.326 -1.03,-0.496 -0.139,-0.068 -0.278,-0.137 -0.417,-0.207 -0.347,-0.175 -0.694,-0.355 -1.04,-0.539 -0.135,-0.071 -0.269,-0.143 -0.404,-0.215 -0.353,-0.191 -0.706,-0.388 -1.059,-0.588 -0.126,-0.073 -0.253,-0.144 -0.379,-0.217 -0.362,-0.209 -0.723,-0.424 -1.083,-0.643 -0.119,-0.072 -0.237,-0.142 -0.355,-0.216 -0.375,-0.23 -0.749,-0.468 -1.123,-0.71 -0.102,-0.065 -0.204,-0.13 -0.306,-0.197 -0.395,-0.259 -0.79,-0.525 -1.184,-0.796 -0.081,-0.056 -0.162,-0.11 -0.243,-0.166 -0.432,-0.299 -0.862,-0.607 -1.291,-0.922 -0.043,-0.03 -0.085,-0.06 -0.128,-0.091 -2.88,-2.117 -5.726,-4.567 -8.515,-7.367 -0.049,-0.048 -0.097,-0.099 -0.146,-0.148 -0.408,-0.412 -0.815,-0.83 -1.221,-1.257 -0.082,-0.086 -0.164,-0.176 -0.247,-0.264 -0.371,-0.393 -0.741,-0.792 -1.11,-1.198 -0.103,-0.113 -0.205,-0.229 -0.307,-0.343 -0.348,-0.387 -0.696,-0.779 -1.042,-1.178 -0.115,-0.133 -0.229,-0.268 -0.344,-0.402 -0.333,-0.388 -0.665,-0.781 -0.996,-1.18 -0.121,-0.147 -0.243,-0.296 -0.364,-0.444 -0.322,-0.393 -0.643,-0.791 -0.963,-1.194 -0.127,-0.162 -0.255,-0.324 -0.382,-0.486 -0.313,-0.4 -0.625,-0.804 -0.935,-1.215 -0.131,-0.171 -0.26,-0.344 -0.39,-0.517 -0.307,-0.41 -0.612,-0.824 -0.917,-1.244 -0.131,-0.181 -0.262,-0.362 -0.392,-0.544 -0.303,-0.423 -0.605,-0.851 -0.905,-1.284 -0.129,-0.186 -0.258,-0.371 -0.387,-0.559 -0.301,-0.438 -0.6,-0.883 -0.898,-1.332 -0.127,-0.19 -0.253,-0.379 -0.379,-0.571 -0.3,-0.455 -0.597,-0.918 -0.894,-1.385 -0.123,-0.193 -0.247,-0.384 -0.369,-0.579 -0.3,-0.477 -0.599,-0.963 -0.897,-1.451 -0.116,-0.19 -0.232,-0.377 -0.348,-0.569 -0.307,-0.511 -0.613,-1.031 -0.918,-1.554 -0.103,-0.175 -0.206,-0.349 -0.309,-0.526 -0.324,-0.562 -0.647,-1.134 -0.968,-1.709 -0.08,-0.145 -0.162,-0.286 -0.242,-0.431 -0.367,-0.663 -0.731,-1.336 -1.093,-2.017 -0.033,-0.061 -0.066,-0.121 -0.099,-0.183 -1.198,-2.26 -2.37,-4.617 -3.512,-7.073 -0.069,-0.147 -0.135,-0.297 -0.203,-0.444 -0.306,-0.663 -0.611,-1.33 -0.912,-2.007 -0.105,-0.234 -0.207,-0.474 -0.311,-0.71 -0.262,-0.596 -0.524,-1.193 -0.783,-1.8 -0.123,-0.29 -0.245,-0.585 -0.368,-0.877 -0.236,-0.562 -0.472,-1.126 -0.705,-1.698 -0.133,-0.327 -0.266,-0.66 -0.398,-0.99 -0.219,-0.547 -0.439,-1.095 -0.655,-1.65 -0.139,-0.355 -0.276,-0.715 -0.413,-1.073 -0.208,-0.542 -0.415,-1.085 -0.62,-1.634 -0.14,-0.377 -0.279,-0.758 -0.419,-1.138 -0.198,-0.541 -0.396,-1.085 -0.591,-1.634 -0.142,-0.398 -0.282,-0.799 -0.422,-1.2 -0.19,-0.542 -0.379,-1.087 -0.566,-1.636 -0.141,-0.416 -0.282,-0.835 -0.422,-1.255 -0.183,-0.548 -0.364,-1.1 -0.544,-1.655 -0.14,-0.429 -0.278,-0.86 -0.416,-1.293 -0.177,-0.558 -0.353,-1.12 -0.528,-1.684 -0.137,-0.443 -0.273,-0.887 -0.409,-1.334 -0.171,-0.565 -0.34,-1.135 -0.509,-1.707 -0.134,-0.456 -0.269,-0.913 -0.401,-1.374 -0.167,-0.579 -0.332,-1.164 -0.496,-1.751 -0.13,-0.463 -0.26,-0.926 -0.388,-1.393 -0.163,-0.595 -0.324,-1.196 -0.484,-1.798 -0.126,-0.471 -0.251,-0.94 -0.375,-1.416 -0.16,-0.615 -0.317,-1.237 -0.474,-1.86 -0.12,-0.473 -0.24,-0.943 -0.358,-1.421 -0.158,-0.637 -0.312,-1.284 -0.466,-1.929 -0.113,-0.474 -0.228,-0.945 -0.34,-1.424 -0.158,-0.676 -0.312,-1.362 -0.467,-2.047 -0.104,-0.457 -0.209,-0.908 -0.31,-1.368 -0.172,-0.777 -0.339,-1.565 -0.506,-2.353 -0.081,-0.378 -0.163,-0.75 -0.243,-1.13 -0.245,-1.175 -0.486,-2.361 -0.721,-3.56 -0.452,0.058 -0.904,0.123 -1.356,0.177 -3.4405,0.389 -6.8312,0.683 -10.1269,0.881 -1.2031,0.072 -2.3953,0.134 -3.5695,0.18 -0.6664,0.026 -1.3496,0.039 -2.025,0.058 -0.091,0.002 -0.1812,0.005 -0.2726,0.008 -0.4215,0.011 -0.8368,0.027 -1.2618,0.036 -0.3812,0.008 -0.7675,0.011 -1.1515,0.016 -0.8356,0.013 -1.675,0.021 -2.5211,0.024 -0.002,0 -0.004,0 -0.006,0 -0.0718,0 -0.1422,0.002 -0.214,0.002 -0.1309,0 -0.2582,0.004 -0.3895,0.004 -0.1836,0 -0.3719,-0.006 -0.5558,-0.007 -1.4926,-0.004 -2.9946,-0.017 -4.5102,-0.052 0.384,7.141 1.2234,14.389 2.4961,21.553 2.0297,11.5 5.1254,22.997 9.2019,34.173 8.4196,22.981 20.4462,43.583 35.7472,61.236 15.794,18.269 35.369,33.097 56.608,42.881 10.624,4.92 22.109,8.777 34.138,11.464 11.081,2.505 23.22,3.98 36.052,4.384 12.862,-0.404 25.002,-1.879 36.084,-4.384 12.028,-2.687 23.513,-6.544 34.137,-11.465 21.238,-9.783 40.813,-24.611 56.608,-42.881 15.3,-17.651 27.327,-38.254 35.746,-61.234 4.077,-11.177 7.173,-22.674 9.203,-34.174 1.272,-7.162 2.111,-14.41 2.496,-21.553 -1.511,0.035 -3.008,0.048 -4.496,0.052 z m -112.272,39.926 c -7.71,0 -13.96,6.251 -13.96,13.96 0,7.71 6.25,13.96 13.96,13.96 7.71,0 13.96,-6.25 13.96,-13.96 0,-7.709 -6.25,-13.96 -13.96,-13.96 z m 50.188,-50.012 c -8.142,-2.939 -16.343,-6.912 -24.393,-11.819 -3.234,12.617 -10.028,27.8 -24.083,40.873 18.486,0.896 33.248,16.215 33.248,34.918 0,8.272 -2.889,15.884 -7.71,21.877 15.264,-9.648 31.643,-34.138 40.878,-80.819 -6.107,-1.245 -12.112,-2.928 -17.94,-5.03 z m -179.13,63.972 c 0,7.71 6.251,13.96 13.961,13.96 7.71,0 13.96,-6.25 13.96,-13.96 0,-7.709 -6.25,-13.96 -13.96,-13.96 -7.71,0 -13.961,6.251 -13.961,13.96 z m -11.835,-75.791 c -8.046,4.905 -16.248,8.879 -24.396,11.82 -5.826,2.102 -11.83,3.784 -17.937,5.029 9.239,46.698 25.622,71.188 40.886,80.83 -4.826,-5.995 -7.718,-13.611 -7.718,-21.888 0,-18.703 14.763,-34.022 33.248,-34.918 -14.056,-13.075 -20.849,-28.255 -24.083,-40.873 z m -70.691,189.053 c -0.1296,0.422 -0.2562,0.846 -0.3789,1.272 1.036,0.06 2.0618,0.091 3.075,0.091 1.9239,0 3.7809,-0.113 5.5739,-0.318 4.668,-0.534 8.89,-1.708 12.66,-3.249 6.595,-2.695 11.809,-6.506 15.598,-9.964 -6.676,-5.356 -13.022,-11.177 -18.959,-17.406 -3.109,3.207 -5.876,6.589 -8.256,10.094 -4.035,5.942 -7.1672,12.492 -9.313,19.48 z m -1.8097,22.219 c -0.166,-0.01 -0.3317,-0.02 -0.4981,-0.031 -0.4828,-0.033 -0.9769,-0.086 -1.4652,-0.129 -0.525,-0.045 -1.0449,-0.08 -1.5766,-0.137 -4e-4,0 -0.002,0 -0.002,-0.001 -0.1645,-0.017 -0.3293,-0.037 -0.4942,-0.056 -10e-4,0 -0.002,0 -0.003,0 -0.6277,-0.071 -1.2683,-0.167 -1.9043,-0.254 -0.425,-0.058 -0.8429,-0.103 -1.2719,-0.169 -0.1218,-0.019 -0.2457,-0.041 -0.3683,-0.061 -1.1293,-0.18 -2.2692,-0.38 -3.425,-0.614 0.004,0.213 -4e-4,0.427 0.004,0.639 0.0957,4.166 0.4644,8.327 1.0777,12.432 0.3125,2.051 0.6852,4.089 1.1281,6.094 0.0379,0.171 0.0836,0.336 0.1223,0.506 10.0586,-1.408 19.8989,-3.552 29.3359,-6.515 0.463,-0.145 0.919,-0.304 1.38,-0.453 10.432,-3.372 20.356,-7.74 29.498,-13.07 8.705,-5.075 16.7,-11.027 23.763,-17.675 -5.151,-2.244 -10.198,-4.756 -15.132,-7.488 -0.006,0.008 -0.013,0.016 -0.019,0.024 -0.213,0.261 -0.441,0.537 -0.68,0.821 0,0 -10e-4,0.001 -10e-4,0.002 -0.078,0.092 -0.164,0.191 -0.244,0.286 -0.002,0.003 -0.005,0.005 -0.007,0.008 -0.173,0.204 -0.35,0.411 -0.537,0.625 -10e-4,0.001 -10e-4,0.002 -0.002,0.003 -0.104,0.119 -0.213,0.242 -0.32,0.364 -0.076,0.086 -0.157,0.175 -0.235,0.262 -0.105,0.118 -0.208,0.235 -0.317,0.356 -10e-4,10e-4 -0.002,0.002 -0.003,0.003 -0.122,0.135 -0.246,0.271 -0.372,0.409 -10e-4,0.001 -0.002,0.002 -0.003,0.003 -0.193,0.21 -0.392,0.425 -0.596,0.642 -10e-4,0.002 -0.002,0.003 -0.004,0.004 -0.131,0.14 -0.262,0.279 -0.397,0.421 -10e-4,10e-4 -0.002,0.002 -0.002,0.003 -0.221,0.231 -0.45,0.467 -0.682,0.704 -0.002,0.002 -0.004,0.004 -0.006,0.006 -0.13,0.134 -0.257,0.266 -0.392,0.401 -0.302,0.304 -0.616,0.615 -0.937,0.927 -0.076,0.075 -0.147,0.147 -0.225,0.222 -0.199,0.193 -0.412,0.39 -0.619,0.585 -0.206,0.194 -0.404,0.387 -0.617,0.583 0,10e-4 -0.001,10e-4 -0.002,0.002 -0.128,0.118 -0.264,0.239 -0.395,0.358 -0.002,0.003 -0.005,0.005 -0.008,0.008 -0.301,0.276 -0.606,0.552 -0.921,0.83 -0.001,0.001 -0.001,0.001 -0.002,0.002 -0.174,0.155 -0.355,0.31 -0.534,0.465 -10e-4,10e-4 -0.003,0.003 -0.004,0.004 -0.288,0.25 -0.58,0.501 -0.879,0.752 -0.001,10e-4 -0.001,0.002 -0.002,0.002 -0.195,0.165 -0.394,0.33 -0.594,0.495 -0.001,10e-4 -0.002,0.002 -0.003,0.003 -0.044,0.036 -0.089,0.072 -0.133,0.107 -0.258,0.213 -0.519,0.426 -0.785,0.639 -0.207,0.166 -0.415,0.332 -0.627,0.498 -0.001,10e-4 -0.002,10e-4 -0.003,0.002 -0.108,0.085 -0.222,0.17 -0.332,0.255 -0.222,0.172 -0.443,0.343 -0.669,0.515 -0.205,0.155 -0.407,0.31 -0.616,0.465 -0.001,0 -0.001,0.001 -0.002,0.001 -0.399,0.297 -0.81,0.592 -1.224,0.887 -0.003,0.002 -0.007,0.005 -0.01,0.007 -0.156,0.111 -0.307,0.223 -0.464,0.333 -10e-4,10e-4 -0.002,10e-4 -0.002,0.002 -0.575,0.403 -1.164,0.803 -1.766,1.2 -10e-4,10e-4 -10e-4,10e-4 -0.002,10e-4 -0.157,0.104 -0.322,0.206 -0.481,0.309 -0.455,0.295 -0.914,0.588 -1.383,0.878 -0.235,0.145 -0.476,0.287 -0.714,0.43 -0.002,0.001 -0.003,0.002 -0.005,0.003 -0.271,0.163 -0.547,0.324 -0.822,0.485 -0.138,0.082 -0.273,0.164 -0.413,0.244 -0.265,0.153 -0.535,0.303 -0.804,0.454 -0.001,0.001 -0.003,0.001 -0.004,0.002 -0.408,0.228 -0.822,0.454 -1.241,0.678 -0.001,0 -0.002,0 -0.003,0.001 -0.278,0.148 -0.558,0.296 -0.841,0.442 -10e-4,10e-4 -0.002,10e-4 -0.003,0.002 -0.435,0.224 -0.878,0.445 -1.324,0.663 -10e-4,0.001 -0.003,0.001 -0.004,0.002 -0.275,0.135 -0.548,0.27 -0.827,0.403 -10e-4,0 -10e-4,0 -0.002,10e-4 -0.101,0.048 -0.206,0.093 -0.308,0.14 -0.411,0.191 -0.823,0.381 -1.241,0.567 -0.228,0.101 -0.451,0.206 -0.682,0.305 -0.378,0.163 -0.769,0.316 -1.154,0.474 -0.384,0.159 -0.761,0.322 -1.152,0.475 0,0 -10e-4,0 -0.002,0 -0.13,0.051 -0.266,0.098 -0.398,0.148 -0.004,0.002 -0.009,0.003 -0.013,0.005 -0.652,0.249 -1.311,0.493 -1.982,0.726 -10e-4,0 -0.002,10e-4 -0.002,10e-4 -0.28,0.097 -0.566,0.187 -0.849,0.282 -0.329,0.109 -0.664,0.214 -0.997,0.32 -0.213,0.068 -0.422,0.139 -0.637,0.205 -10e-4,0 -0.002,0 -0.002,0 -0.325,0.099 -0.654,0.193 -0.983,0.289 -0.529,0.152 -1.063,0.3 -1.603,0.442 -0.342,0.089 -0.685,0.177 -1.032,0.262 -0.002,10e-4 -0.004,10e-4 -0.005,0.002 -0.23,0.056 -0.455,0.119 -0.687,0.174 -0.32,0.075 -0.65,0.138 -0.974,0.21 -0.002,0 -0.003,0 -0.004,0 -0.341,0.075 -0.681,0.151 -1.026,0.221 -0.394,0.08 -0.797,0.15 -1.197,0.222 -0.223,0.04 -0.442,0.085 -0.665,0.124 -0.002,0 -0.004,0 -0.006,0.001 -0.299,0.052 -0.594,0.109 -0.896,0.158 -0.902,0.145 -1.817,0.271 -2.744,0.381 -0.993,0.118 -1.999,0.218 -3.021,0.295 0,0 -10e-4,0 -0.002,0 -0.309,0.023 -0.625,0.036 -0.936,0.055 -0.003,10e-4 -0.005,10e-4 -0.007,10e-4 -0.682,0.042 -1.367,0.079 -2.062,0.102 -10e-4,0 -0.002,0 -0.002,0 -0.381,0.012 -0.767,0.016 -1.151,0.022 -10e-4,0 -0.003,0 -0.005,0 -0.3906,0.006 -0.7746,0.023 -1.1692,0.023 -0.3703,0 -0.7461,-0.008 -1.1199,-0.014 -0.001,0 -0.002,0 -0.004,0 -0.132,-0.002 -0.2629,-0.003 -0.3957,-0.005 -8e-4,0 -10e-4,0 -0.002,0 -0.9813,-0.021 -1.9766,-0.064 -2.9817,-0.125 -8e-4,0 -0.002,0 -0.003,0 z m 260.0367,-1.819 c 9.543,5.565 19.933,10.093 30.871,13.521 0.002,0.001 0.004,0.002 0.007,0.002 9.437,2.963 19.277,5.107 29.335,6.515 0.039,-0.17 0.085,-0.335 0.123,-0.506 0.443,-2.005 0.815,-4.043 1.127,-6.094 0.614,-4.105 0.983,-8.266 1.078,-12.432 0.005,-0.212 0.001,-0.426 0.005,-0.639 -0.258,0.053 -0.508,0.088 -0.764,0.137 -0.889,0.17 -1.777,0.336 -2.65,0.475 -0.002,0 -0.003,10e-4 -0.004,10e-4 -0.126,0.02 -0.254,0.043 -0.379,0.062 -1.066,0.165 -2.118,0.302 -3.159,0.421 -0.175,0.02 -0.35,0.041 -0.524,0.06 -0.482,0.051 -0.952,0.083 -1.429,0.125 -0.528,0.046 -1.062,0.103 -1.585,0.138 0,0 -0.001,0 -0.002,0 -0.177,0.012 -0.352,0.023 -0.528,0.033 -10e-4,0 -0.002,0.001 -0.003,0.001 -0.998,0.06 -1.986,0.103 -2.961,0.123 0,0 -10e-4,0 -0.002,0 -0.137,0.003 -0.272,0.004 -0.408,0.006 -0.001,0 -0.003,0 -0.004,0 -0.371,0.006 -0.745,0.014 -1.113,0.014 -0.396,0 -0.782,-0.017 -1.174,-0.023 -10e-4,0 -0.003,0 -0.005,0 -0.381,-0.006 -0.763,-0.01 -1.14,-0.022 -10e-4,0 -10e-4,0 -0.002,0 -0.705,-0.023 -1.399,-0.06 -2.091,-0.103 -0.002,0 -0.004,-0.001 -0.006,-0.001 -0.302,-0.018 -0.608,-0.031 -0.908,-0.053 0,0 -10e-4,0 -0.002,0 -1.984,-0.149 -3.913,-0.379 -5.787,-0.679 -10e-4,0 -10e-4,-0.001 -0.002,-0.001 -0.271,-0.043 -0.535,-0.095 -0.804,-0.141 -0.002,-0.001 -0.004,-0.001 -0.006,-0.001 -0.66,-0.115 -1.316,-0.233 -1.961,-0.365 -0.001,0 -0.002,0 -0.002,0 -0.168,-0.034 -0.332,-0.072 -0.498,-0.107 -0.149,-0.032 -0.298,-0.064 -0.447,-0.096 -0.091,-0.02 -0.18,-0.043 -0.27,-0.063 -0.501,-0.111 -1,-0.223 -1.491,-0.344 -10e-4,0 -0.002,-10e-4 -0.003,-10e-4 -0.317,-0.078 -0.633,-0.158 -0.947,-0.241 -10e-4,0 -0.002,0 -0.003,0 -0.521,-0.137 -1.034,-0.28 -1.545,-0.427 -0.056,-0.016 -0.112,-0.03 -0.167,-0.046 -0.292,-0.085 -0.585,-0.168 -0.873,-0.256 -10e-4,-0.001 -0.002,-0.001 -0.003,-0.001 -0.235,-0.071 -0.464,-0.15 -0.697,-0.224 -0.364,-0.116 -0.731,-0.23 -1.091,-0.35 -0.233,-0.079 -0.47,-0.153 -0.701,-0.233 0,0 -10e-4,0 -10e-4,-10e-4 -0.782,-0.271 -1.553,-0.553 -2.31,-0.846 -0.004,-10e-4 -0.008,-0.003 -0.013,-0.004 -0.024,-0.01 -0.049,-0.018 -0.074,-0.028 h -10e-4 c -0.807,-0.315 -1.599,-0.641 -2.377,-0.978 -0.001,0 -0.001,0 -0.002,-10e-4 -0.153,-0.066 -0.302,-0.136 -0.454,-0.203 -0.441,-0.195 -0.874,-0.395 -1.306,-0.596 -0.159,-0.074 -0.323,-0.145 -0.481,-0.22 -10e-4,0 -0.002,0 -0.002,-0.001 -0.225,-0.107 -0.446,-0.217 -0.668,-0.325 -0.002,0 -0.003,-10e-4 -0.005,-0.002 -0.253,-0.123 -0.5,-0.251 -0.75,-0.376 -0.25,-0.125 -0.503,-0.248 -0.749,-0.375 -0.235,-0.122 -0.468,-0.245 -0.701,-0.369 -0.293,-0.155 -0.579,-0.315 -0.867,-0.473 -0.18,-0.098 -0.362,-0.195 -0.539,-0.294 -0.001,-10e-4 -0.002,-0.002 -0.004,-0.002 -0.22,-0.124 -0.442,-0.247 -0.66,-0.373 0,0 -0.001,0 -0.002,-10e-4 -0.369,-0.212 -0.729,-0.427 -1.089,-0.643 -0.11,-0.066 -0.224,-0.131 -0.333,-0.196 -0.18,-0.109 -0.363,-0.217 -0.541,-0.327 -10e-4,0 -0.002,-0.001 -0.002,-0.001 -0.565,-0.348 -1.117,-0.699 -1.66,-1.054 -0.003,-0.002 -0.006,-0.004 -0.01,-0.006 -0.066,-0.044 -0.135,-0.086 -0.201,-0.13 -10e-4,0 -10e-4,0 -0.002,-10e-4 -0.571,-0.375 -1.126,-0.755 -1.672,-1.136 -0.056,-0.039 -0.116,-0.078 -0.172,-0.117 -0.066,-0.046 -0.128,-0.093 -0.193,-0.139 -0.311,-0.219 -0.61,-0.44 -0.913,-0.661 -0.198,-0.143 -0.401,-0.286 -0.595,-0.43 -0.001,-0.001 -0.001,-0.001 -0.002,-0.002 -0.159,-0.118 -0.313,-0.237 -0.469,-0.355 -0.002,-10e-4 -0.004,-0.002 -0.006,-0.004 -0.389,-0.294 -0.775,-0.589 -1.151,-0.884 0,-10e-4 -10e-4,-10e-4 -0.002,-0.002 -0.174,-0.137 -0.345,-0.273 -0.516,-0.41 -0.352,-0.281 -0.698,-0.562 -1.036,-0.842 -0.168,-0.139 -0.335,-0.278 -0.5,-0.416 -0.242,-0.204 -0.476,-0.407 -0.711,-0.609 -0.093,-0.08 -0.189,-0.161 -0.281,-0.242 -0.002,-10e-4 -0.003,-0.002 -0.004,-0.003 -0.146,-0.127 -0.293,-0.253 -0.436,-0.379 0,-10e-4 -10e-4,-10e-4 -0.002,-0.002 -0.357,-0.316 -0.703,-0.629 -1.043,-0.941 -0.003,-0.002 -0.006,-0.005 -0.008,-0.007 -0.094,-0.086 -0.192,-0.172 -0.284,-0.258 -0.001,0 -0.001,-0.001 -0.002,-0.001 -0.437,-0.405 -0.86,-0.805 -1.268,-1.199 0,-0.001 -0.001,-0.001 -0.001,-0.002 -0.027,-0.025 -0.052,-0.05 -0.078,-0.077 -0.005,-0.004 -0.01,-0.008 -0.014,-0.013 -0.368,-0.357 -0.724,-0.709 -1.067,-1.056 -10e-4,0 -0.002,-10e-4 -0.002,-0.002 -0.116,-0.117 -0.225,-0.23 -0.338,-0.346 -0.002,-0.002 -0.004,-0.004 -0.006,-0.006 -0.25,-0.255 -0.497,-0.509 -0.733,-0.757 -10e-4,-0.001 -0.002,-0.001 -0.002,-0.002 -0.126,-0.133 -0.248,-0.262 -0.37,-0.392 -10e-4,-0.002 -0.003,-0.003 -0.004,-0.004 -0.213,-0.227 -0.421,-0.451 -0.622,-0.671 -10e-4,-10e-4 -0.002,-0.002 -0.003,-0.003 -0.119,-0.13 -0.238,-0.26 -0.353,-0.387 -10e-4,-0.001 -0.002,-0.002 -0.002,-0.003 -0.195,-0.215 -0.382,-0.425 -0.564,-0.632 -0.002,-0.002 -0.003,-0.004 -0.004,-0.005 -0.105,-0.119 -0.212,-0.239 -0.313,-0.355 0,-10e-4 -0.001,-10e-4 -0.002,-0.002 -0.187,-0.215 -0.364,-0.422 -0.538,-0.627 -0.002,-0.003 -0.004,-0.005 -0.007,-0.008 -0.08,-0.095 -0.166,-0.194 -0.244,-0.286 -0.175,-0.209 -0.336,-0.405 -0.498,-0.602 -0.059,-0.073 -0.125,-0.151 -0.182,-0.221 -0.007,-0.008 -0.014,-0.016 -0.02,-0.024 -4.934,2.732 -9.98,5.244 -15.132,7.488 7.063,6.648 15.058,12.6 23.764,17.675 z m 49.724,-20.411 c -2.142,-6.977 -5.275,-13.527 -9.313,-19.472 -2.377,-3.503 -5.144,-6.884 -8.253,-10.092 -5.94,6.231 -12.286,12.053 -18.959,17.407 4.094,3.737 9.859,7.878 17.223,10.584 3.858,1.418 8.158,2.434 12.894,2.792 1.213,0.091 2.444,0.155 3.714,0.155 1.014,0 2.04,-0.031 3.076,-0.091 -0.124,-0.43 -0.251,-0.858 -0.382,-1.283 z m 45.651,-180.416 c -0.358,13.029 -2.09,26.297 -5.146,39.436 -2.936,12.659 -7.045,25.224 -12.212,37.349 -2.388,5.578 -4.979,11.003 -7.749,16.286 -7.529,14.359 -16.453,27.598 -26.682,39.58 5.283,4.94 10.093,10.448 14.199,16.497 5.214,7.676 9.276,16.185 12.014,25.104 2.744,8.922 4.18,18.226 4.436,27.544 0.128,4.661 -0.047,9.329 -0.504,13.986 -0.235,2.329 -0.539,4.654 -0.932,6.983 -0.197,1.165 -0.415,2.331 -0.661,3.504 l -0.396,1.775 -0.223,0.907 -0.277,1.02 -1.033,3.988 -5.176,0.555 c -7.418,0.796 -14.937,1.229 -22.517,1.229 -5.158,0 -10.343,-0.201 -15.547,-0.623 -12.847,-1.039 -25.798,-3.443 -38.502,-7.422 -12.699,-3.979 -25.137,-9.529 -36.866,-16.751 -5.862,-3.618 -11.554,-7.633 -17.015,-12.148 -1.084,-0.894 -2.156,-1.814 -3.222,-2.75 -6.257,1.038 -12.775,1.991 -19.507,2.584 -4.374,0.386 -8.833,0.625 -13.369,0.625 -0.906,0 -1.815,-0.009 -2.728,-0.03 -0.913,0.021 -1.824,0.03 -2.732,0.03 -4.544,0 -9.007,-0.239 -13.385,-0.625 -6.735,-0.593 -13.251,-1.546 -19.507,-2.584 -1.066,0.936 -2.137,1.856 -3.221,2.75 -5.462,4.515 -11.154,8.53 -17.016,12.148 -11.729,7.222 -24.167,12.772 -36.866,16.751 -12.704,3.979 -25.655,6.383 -38.501,7.422 -5.204,0.422 -10.391,0.623 -15.548,0.623 -7.5805,0 -15.0977,-0.433 -22.5164,-1.229 l -5.1758,-0.555 -1.0328,-3.988 -0.2774,-1.02 -0.2226,-0.907 -0.3965,-1.775 c -0.2461,-1.173 -0.4645,-2.339 -0.6617,-3.504 -0.3922,-2.329 -0.6965,-4.654 -0.9309,-6.983 -0.4574,-4.657 -0.6328,-9.325 -0.5047,-13.986 0.2559,-9.318 1.6918,-18.622 4.4364,-27.544 2.7382,-8.919 6.7996,-17.428 12.0132,-25.104 4.1067,-6.049 8.9165,-11.557 14.1992,-16.497 -10.2285,-11.982 -19.1527,-25.221 -26.682,-39.58 -2.7699,-5.283 -5.3609,-10.709 -7.7484,-16.287 -5.1672,-12.122 -9.2758,-24.688 -12.2121,-37.348 -3.0563,-13.139 -4.7879,-26.407 -5.1461,-39.436 l -0.3754,-13.652 14.4621,1.144 c 6.7406,1.059 13.1344,1.788 19.2309,2.194 2,0.133 3.9613,0.223 5.898,0.287 1.7434,0.056 3.4703,0.094 5.1649,0.094 6.1621,0 12.0101,-0.374 17.6041,-1.121 7.814,-1.007 15.496,-2.86 22.832,-5.506 7.078,-2.555 14.265,-6.077 21.363,-10.47 6.529,-4.041 12.841,-8.683 20.312,-14.409 l 2.082,-1.595 c 5.496,-4.212 11.164,-9.354 17.22,-13.511 0.664,-0.456 1.329,-0.91 2.003,-1.34 4.729,-3.017 9.424,-5.909 14.245,-8.3 3.432,-1.703 6.925,-3.1589 10.547,-4.1921 3.68,-1.075 7.542,-1.8949 11.478,-2.4379 0.133,-0.0191 0.388,-0.0629 0.75,-0.1262 2.332,-0.4047 8.527,-1.4808 14.808,-1.4808 6.282,0 12.477,1.0761 14.808,1.4808 0.362,0.0633 0.618,0.1071 0.75,0.1262 3.936,0.543 7.798,1.3629 11.475,2.4379 3.623,1.0332 7.117,2.4891 10.55,4.1921 4.821,2.392 9.517,5.283 14.245,8.3 0.674,0.43 1.339,0.884 2.004,1.34 6.055,4.157 11.723,9.299 17.219,13.511 l 2.083,1.595 c 7.471,5.727 13.784,10.369 20.311,14.409 7.098,4.393 14.286,7.916 21.363,10.47 7.337,2.646 15.018,4.499 22.834,5.506 5.59,0.747 11.436,1.121 17.597,1.121 1.696,0 3.425,-0.038 5.17,-0.095 1.937,-0.063 3.898,-0.154 5.898,-0.287 6.104,-0.406 12.509,-1.137 19.268,-2.198 l 14.425,-1.139 -0.375,13.652" />
        <path
           inkscape:connector-curvature="0"
           id="path32"
           style="fill:#ffd700;fill-opacity:1;fill-rule:nonzero;stroke:none;stroke-width:0.1"
           d="m 789.63387,243.465 c -3.838,0 -6.96,-3.122 -6.96,-6.96 0,-3.838 3.122,-6.96 6.96,-6.96 3.838,0 6.96,3.122 6.96,6.96 0,3.838 -3.122,6.96 -6.96,6.96 z m -114.981,0 c -3.838,0 -6.961,-3.122 -6.961,-6.96 0,-3.838 3.123,-6.96 6.961,-6.96 3.837,0 6.96,3.122 6.96,6.96 0,3.838 -3.123,6.96 -6.96,6.96" />
        <path
           inkscape:connector-curvature="0"
           id="path34"
           style="fill:#ff8100;fill-opacity:1;fill-rule:nonzero;stroke:none;stroke-width:0.1"
           d="m 789.63387,229.545 c -3.838,0 -6.96,3.122 -6.96,6.96 0,3.838 3.122,6.96 6.96,6.96 3.838,0 6.96,-3.122 6.96,-6.96 0,-3.838 -3.122,-6.96 -6.96,-6.96 z m 0,20.92 c -7.71,0 -13.96,-6.25 -13.96,-13.96 0,-7.709 6.25,-13.96 13.96,-13.96 7.71,0 13.96,6.251 13.96,13.96 0,7.71 -6.25,13.96 -13.96,13.96 z m -114.981,-20.92 c -3.838,0 -6.961,3.122 -6.961,6.96 0,3.838 3.123,6.96 6.961,6.96 3.837,0 6.96,-3.122 6.96,-6.96 0,-3.838 -3.123,-6.96 -6.96,-6.96 z m 0,20.92 c -7.71,0 -13.961,-6.25 -13.961,-13.96 0,-7.709 6.251,-13.96 13.961,-13.96 7.71,0 13.96,6.251 13.96,13.96 0,7.71 -6.25,13.96 -13.96,13.96" />
      </g>
    </g>
  </g>
</svg>
